<?xml version="1.0" standalone="no"?>
<!DOCTYPE svg PUBLIC "-//W3C//DTD SVG 20010904//EN"
 "http://www.w3.org/TR/2001/REC-SVG-20010904/DTD/svg10.dtd">
<svg version="1.0" xmlns="http://www.w3.org/2000/svg"
 width="900.000000pt" height="519.000000pt" viewBox="0 0 900.000000 519.000000"
 preserveAspectRatio="xMidYMid meet">

<g transform="translate(0.000000,519.000000) scale(0.100000,-0.100000)"
fill="#000000" stroke="none">
<path d="M2335 4703 c-4 -10 -43 -112 -87 -228 -108 -285 -211 -552 -512
-1336 -141 -367 -256 -672 -256 -678 0 -8 75 -11 272 -9 l272 3 93 245 c51
135 113 299 138 365 81 220 114 300 115 279 0 -12 -4 -77 -10 -145 -24 -298
-50 -733 -44 -738 3 -3 137 -6 297 -6 l292 0 21 60 c11 33 28 77 37 99 9 21
17 41 17 44 0 6 46 124 65 167 7 17 19 50 25 75 7 25 16 50 20 55 4 6 15 34
24 64 9 29 20 59 24 65 5 6 12 25 16 41 4 17 14 44 21 60 26 58 75 187 75 198
1 7 9 30 20 52 11 22 19 45 20 51 0 6 9 33 20 60 10 27 35 92 55 144 20 52 43
109 51 127 8 17 14 37 14 45 0 7 8 29 18 48 11 19 22 48 26 65 8 31 113 313
161 430 38 93 105 283 105 298 0 16 -23 17 -269 17 -247 0 -269 -1 -276 -17
-3 -10 -81 -216 -172 -458 -90 -242 -169 -447 -174 -455 -7 -10 -8 16 -4 75 3
50 6 97 6 105 0 8 4 65 9 125 5 61 14 200 20 310 6 110 13 221 15 248 3 41 2
47 -16 47 -10 0 -19 5 -19 10 0 6 -93 10 -259 10 -237 0 -259 -1 -266 -17z"/>
<path d="M3737 4543 c-36 -98 -123 -331 -192 -518 -70 -187 -176 -473 -237
-635 -250 -668 -338 -915 -334 -927 4 -10 62 -13 270 -13 l264 0 20 63 c23 71
98 272 112 302 6 11 28 70 50 130 21 61 55 151 73 200 66 173 118 311 157 415
21 58 62 166 90 240 28 74 58 153 65 175 8 22 28 76 45 120 51 131 105 276
140 375 10 30 34 93 53 139 29 70 32 87 22 98 -11 10 -72 13 -272 13 l-259 0
-67 -177z"/>
<path d="M4210 4138 c-117 -321 -258 -704 -312 -853 -193 -524 -298 -816 -298
-825 0 -7 96 -9 267 -8 l267 3 15 40 c17 47 28 76 161 425 56 146 112 291 124
323 l23 59 7 -64 c3 -34 13 -220 22 -413 10 -198 21 -356 27 -363 8 -10 82
-12 363 -10 194 2 350 0 346 -3 -4 -3 -171 -50 -372 -104 -512 -137 -752 -201
-1415 -380 -1276 -344 -1157 -314 -1300 -322 -355 -17 -644 113 -786 353 -182
309 -169 695 38 1136 25 54 43 101 40 105 -15 14 -223 -235 -378 -452 -478
-669 -736 -1269 -703 -1635 16 -179 108 -367 243 -498 129 -124 301 -204 566
-263 64 -15 350 -19 420 -7 22 4 83 14 135 23 52 9 129 25 170 37 124 34 421
135 494 168 22 10 104 44 181 75 77 32 185 77 240 100 277 119 333 143 370
158 22 8 65 26 95 40 89 40 217 96 330 143 58 25 114 49 125 54 32 14 180 78
295 127 58 24 123 53 146 64 22 10 44 19 48 19 4 0 22 7 39 14 18 8 115 51
217 96 102 44 199 87 215 95 17 8 73 32 125 54 112 46 236 100 302 130 26 11
84 36 130 55 111 46 257 110 346 152 39 19 75 34 78 34 4 0 41 15 83 34 42 19
132 58 201 86 68 29 151 65 185 80 64 30 107 49 195 85 30 13 114 49 185 80
211 92 283 124 415 180 69 29 168 72 220 95 52 23 192 84 310 135 278 120 517
224 555 240 17 7 120 52 230 99 188 82 225 98 368 160 37 16 60 33 66 48 6 16
5 24 -4 26 -7 2 -107 -22 -221 -53 -115 -31 -315 -85 -444 -120 -129 -35 -397
-107 -595 -160 -198 -53 -423 -114 -500 -135 -382 -104 -631 -170 -641 -170
-8 0 -6 20 8 62 10 35 20 75 22 89 l3 26 -105 7 c-58 3 -192 6 -299 6 -179 0
-193 1 -193 18 0 10 4 22 9 28 5 5 16 34 26 64 10 30 21 60 25 65 4 6 14 33
23 60 9 28 28 82 43 120 14 39 34 90 43 115 l17 45 257 1 c141 0 258 2 261 5
2 2 20 49 39 104 19 55 51 145 71 200 20 55 36 103 36 106 0 3 -111 8 -246 12
-135 3 -248 7 -250 10 -3 3 15 56 39 119 25 62 51 131 57 153 7 22 16 45 20
50 4 6 14 30 21 55 7 25 16 50 21 57 6 8 84 11 273 10 146 0 268 2 271 5 6 7
102 262 109 290 2 9 8 26 14 37 6 11 11 31 11 45 l0 26 -812 -1 -813 0 -250
-294 c-137 -162 -253 -294 -257 -295 -3 0 3 19 14 42 20 42 34 78 83 218 14
41 33 89 41 107 8 17 14 35 14 40 0 4 6 19 13 34 24 45 46 119 40 134 -4 13
-47 15 -272 15 l-267 0 -214 -582z m1374 -8 c-91 -250 -188 -516 -215 -590
-27 -74 -111 -306 -187 -515 -92 -256 -138 -370 -139 -350 -1 17 -9 221 -18
455 -8 234 -17 475 -20 535 l-5 110 137 151 c76 83 243 267 372 408 128 141
235 255 237 254 1 -2 -72 -208 -162 -458z"/>
<path d="M7063 4695 c-62 -27 -83 -98 -47 -166 28 -54 114 -77 163 -43 25 18
51 71 51 105 0 38 -31 87 -65 103 -40 19 -60 20 -102 1z m121 -64 c14 -27 11
-77 -6 -87 -15 -9 -38 29 -26 43 5 7 8 22 6 35 -3 20 -9 23 -48 23 l-45 0 -3
-57 c-3 -53 -1 -58 18 -58 14 0 20 6 20 22 0 21 0 21 23 -3 13 -13 22 -26 21
-27 -6 -9 -76 -3 -88 7 -21 18 -28 61 -16 92 26 61 115 68 144 10z m-54 -19
c0 -5 -7 -9 -15 -9 -8 0 -15 4 -15 9 0 4 7 8 15 8 8 0 15 -4 15 -8z"/>
<path d="M1705 2046 c-43 -19 -66 -49 -72 -94 -10 -74 43 -132 122 -132 79 0
132 58 122 132 -6 46 -29 75 -74 94 -40 17 -59 17 -98 0z m106 -55 c32 -32 35
-47 17 -86 -14 -30 -19 -31 -36 -5 -10 17 -10 24 2 42 20 29 4 48 -40 48 -32
0 -42 9 -27 23 15 16 57 5 84 -22z m-106 -100 c-5 -13 -9 -11 -21 12 -15 28
-12 59 10 86 9 11 12 4 14 -34 2 -26 0 -55 -3 -64z m65 69 c0 -5 -9 -10 -21
-10 -11 0 -17 5 -14 10 3 6 13 10 21 10 8 0 14 -4 14 -10z m-4 -66 c13 -14 24
-27 24 -30 0 -2 -16 -4 -35 -4 -19 0 -35 5 -35 10 0 6 5 10 11 10 6 0 8 9 4
20 -9 27 3 25 31 -6z"/>
</g>
</svg>
